<?xml version="1.0" encoding="UTF-8" standalone="no"?><svg xmlns="http://www.w3.org/2000/svg" xmlns:xlink="http://www.w3.org/1999/xlink" contentScriptType="application/ecmascript" contentStyleType="text/css" height="828px" preserveAspectRatio="none" style="width:1764px;height:828px;" version="1.1" viewBox="0 0 1764 828" width="1764px" zoomAndPan="magnify"><defs><filter height="300%" id="f1yde4q4fpv88" width="300%" x="-1" y="-1"><feGaussianBlur result="blurOut" stdDeviation="4.0"/><feColorMatrix in="blurOut" result="blurOut2" type="matrix" values="0 0 0 0 0 0 0 0 0 0 0 0 0 0 0 0 0 0 .4 0"/><feOffset dx="8.0" dy="8.0" in="blurOut2" result="blurOut3"/><feBlend in="SourceGraphic" in2="blurOut3" mode="normal"/></filter></defs><g><ellipse cx="883" cy="40" fill="#000000" filter="url(#f1yde4q4fpv88)" rx="20" ry="20" style="stroke: none; stroke-width: 2.0;"/><rect fill="#FEFECE" filter="url(#f1yde4q4fpv88)" height="70.1875" rx="25" ry="25" style="stroke: #A80036; stroke-width: 3.0;" width="294" x="736" y="100"/><text fill="#000000" font-family="sans-serif" font-size="24" lengthAdjust="spacingAndGlyphs" textLength="254" x="756" y="144.9141">It's time to update rates</text><rect fill="#000000" filter="url(#f1yde4q4fpv88)" height="12" rx="5" ry="5" style="stroke: #000000; stroke-width: 2.0;" width="1722" x="20" y="210.1875"/><rect fill="#FEFECE" filter="url(#f1yde4q4fpv88)" height="70.1875" rx="25" ry="25" style="stroke: #A80036; stroke-width: 3.0;" width="322" x="378" y="262.1875"/><text fill="#000000" font-family="sans-serif" font-size="24" lengthAdjust="spacingAndGlyphs" textLength="282" x="398" y="307.1016">RateProvider1.GetRates()</text><rect fill="#000000" filter="url(#f1yde4q4fpv88)" height="12" rx="5" ry="5" style="stroke: #000000; stroke-width: 2.0;" width="961" x="44" y="390.4688"/><rect fill="#FEFECE" filter="url(#f1yde4q4fpv88)" height="70.1875" rx="25" ry="25" style="stroke: #A80036; stroke-width: 3.0;" width="290" x="68" y="442.4688"/><text fill="#000000" font-family="sans-serif" font-size="24" lengthAdjust="spacingAndGlyphs" textLength="250" x="88" y="487.3828">proxy.GetRates("RUB")</text><rect fill="#FEFECE" filter="url(#f1yde4q4fpv88)" height="70.1875" rx="25" ry="25" style="stroke: #A80036; stroke-width: 3.0;" width="290" x="411" y="442.4688"/><text fill="#000000" font-family="sans-serif" font-size="24" lengthAdjust="spacingAndGlyphs" textLength="250" x="431" y="487.3828">proxy.GetRates("USD")</text><rect fill="#FEFECE" filter="url(#f1yde4q4fpv88)" height="70.1875" rx="25" ry="25" style="stroke: #A80036; stroke-width: 3.0;" width="256" x="721" y="442.4688"/><text fill="#000000" font-family="sans-serif" font-size="24" lengthAdjust="spacingAndGlyphs" textLength="216" x="741" y="487.3828">proxy.GetRates("...")</text><rect fill="#000000" filter="url(#f1yde4q4fpv88)" height="12" rx="5" ry="5" style="stroke: #000000; stroke-width: 2.0;" width="961" x="44" y="552.6563"/><rect fill="#FEFECE" filter="url(#f1yde4q4fpv88)" height="70.1875" rx="25" ry="25" style="stroke: #A80036; stroke-width: 3.0;" width="322" x="1050" y="372.375"/><text fill="#000000" font-family="sans-serif" font-size="24" lengthAdjust="spacingAndGlyphs" textLength="282" x="1070" y="417.2891">RateProvider2.GetRates()</text><rect fill="#FEFECE" filter="url(#f1yde4q4fpv88)" height="70.1875" rx="25" ry="25" style="stroke: #A80036; stroke-width: 3.0;" width="326" x="1392" y="372.375"/><text fill="#000000" font-family="sans-serif" font-size="24" lengthAdjust="spacingAndGlyphs" textLength="286" x="1412" y="417.2891">RateProviderN.GetRates()</text><rect fill="#000000" filter="url(#f1yde4q4fpv88)" height="12" rx="5" ry="5" style="stroke: #000000; stroke-width: 2.0;" width="1722" x="20" y="604.6563"/><rect fill="#FEFECE" filter="url(#f1yde4q4fpv88)" height="70.1875" rx="25" ry="25" style="stroke: #A80036; stroke-width: 3.0;" width="214" x="776" y="656.6563"/><text fill="#000000" font-family="sans-serif" font-size="24" lengthAdjust="spacingAndGlyphs" textLength="174" x="796" y="701.5703">Process results</text><ellipse cx="883" cy="786.8438" fill="#FFFFFF" filter="url(#f1yde4q4fpv88)" rx="20" ry="20" style="stroke: #000000; stroke-width: 3.0;"/><line style="stroke: #000000; stroke-width: 5.0;" x1="870.6256" x2="895.3744" y1="774.4694" y2="799.2181"/><line style="stroke: #000000; stroke-width: 5.0;" x1="895.3744" x2="870.6256" y1="774.4694" y2="799.2181"/><line style="stroke: #A80036; stroke-width: 3.0;" x1="883" x2="883" y1="60" y2="100"/><polygon fill="#A80036" points="875,80,883,100,891,80,883,88" style="stroke: #A80036; stroke-width: 2.0;"/><line style="stroke: #A80036; stroke-width: 3.0;" x1="213" x2="213" y1="402.4688" y2="442.4688"/><polygon fill="#A80036" points="205,422.4688,213,442.4688,221,422.4688,213,430.4688" style="stroke: #A80036; stroke-width: 2.0;"/><line style="stroke: #A80036; stroke-width: 3.0;" x1="556" x2="556" y1="402.4688" y2="442.4688"/><polygon fill="#A80036" points="548,422.4688,556,442.4688,564,422.4688,556,430.4688" style="stroke: #A80036; stroke-width: 2.0;"/><line style="stroke: #A80036; stroke-width: 3.0;" x1="849" x2="849" y1="402.4688" y2="442.4688"/><polygon fill="#A80036" points="841,422.4688,849,442.4688,857,422.4688,849,430.4688" style="stroke: #A80036; stroke-width: 2.0;"/><line style="stroke: #A80036; stroke-width: 3.0;" x1="213" x2="213" y1="512.6563" y2="552.6563"/><polygon fill="#A80036" points="205,532.6563,213,552.6563,221,532.6563,213,540.6563" style="stroke: #A80036; stroke-width: 2.0;"/><line style="stroke: #A80036; stroke-width: 3.0;" x1="556" x2="556" y1="512.6563" y2="552.6563"/><polygon fill="#A80036" points="548,532.6563,556,552.6563,564,532.6563,556,540.6563" style="stroke: #A80036; stroke-width: 2.0;"/><line style="stroke: #A80036; stroke-width: 3.0;" x1="849" x2="849" y1="512.6563" y2="552.6563"/><polygon fill="#A80036" points="841,532.6563,849,552.6563,857,532.6563,849,540.6563" style="stroke: #A80036; stroke-width: 2.0;"/><line style="stroke: #A80036; stroke-width: 3.0;" x1="539" x2="539" y1="332.375" y2="390.4688"/><polygon fill="#A80036" points="531,370.4688,539,390.4688,547,370.4688,539,378.4688" style="stroke: #A80036; stroke-width: 2.0;"/><line style="stroke: #A80036; stroke-width: 3.0;" x1="539" x2="539" y1="222.1875" y2="262.1875"/><polygon fill="#A80036" points="531,242.1875,539,262.1875,547,242.1875,539,250.1875" style="stroke: #A80036; stroke-width: 2.0;"/><line style="stroke: #A80036; stroke-width: 3.0;" x1="1211" x2="1211" y1="222.1875" y2="372.375"/><polygon fill="#A80036" points="1203,352.375,1211,372.375,1219,352.375,1211,360.375" style="stroke: #A80036; stroke-width: 2.0;"/><line style="stroke: #A80036; stroke-width: 3.0;" x1="1555" x2="1555" y1="222.1875" y2="372.375"/><polygon fill="#A80036" points="1547,352.375,1555,372.375,1563,352.375,1555,360.375" style="stroke: #A80036; stroke-width: 2.0;"/><line style="stroke: #A80036; stroke-width: 3.0;" x1="539" x2="539" y1="564.6563" y2="604.6563"/><polygon fill="#A80036" points="531,584.6563,539,604.6563,547,584.6563,539,592.6563" style="stroke: #A80036; stroke-width: 2.0;"/><line style="stroke: #A80036; stroke-width: 3.0;" x1="1211" x2="1211" y1="442.5625" y2="604.6563"/><polygon fill="#A80036" points="1203,584.6563,1211,604.6563,1219,584.6563,1211,592.6563" style="stroke: #A80036; stroke-width: 2.0;"/><line style="stroke: #A80036; stroke-width: 3.0;" x1="1555" x2="1555" y1="442.5625" y2="604.6563"/><polygon fill="#A80036" points="1547,584.6563,1555,604.6563,1563,584.6563,1555,592.6563" style="stroke: #A80036; stroke-width: 2.0;"/><line style="stroke: #A80036; stroke-width: 3.0;" x1="883" x2="883" y1="170.1875" y2="210.1875"/><polygon fill="#A80036" points="875,190.1875,883,210.1875,891,190.1875,883,198.1875" style="stroke: #A80036; stroke-width: 2.0;"/><line style="stroke: #A80036; stroke-width: 3.0;" x1="883" x2="883" y1="616.6563" y2="656.6563"/><polygon fill="#A80036" points="875,636.6563,883,656.6563,891,636.6563,883,644.6563" style="stroke: #A80036; stroke-width: 2.0;"/><line style="stroke: #A80036; stroke-width: 3.0;" x1="883" x2="883" y1="726.8438" y2="766.8438"/><polygon fill="#A80036" points="875,746.8438,883,766.8438,891,746.8438,883,754.8438" style="stroke: #A80036; stroke-width: 2.0;"/><!--MD5=[d840267ca3212fdd8bc1771e5d2aa070]
@startuml

start

:It's time to update rates;

fork
	:RateProvider1.GetRates();
	fork
	    :proxy.GetRates("RUB");
	fork again
	    :proxy.GetRates("USD");
	fork again
	    :proxy.GetRates("...");
	end fork
  fork again
	:RateProvider2.GetRates();
  fork again
    :RateProviderN.GetRates();
  end fork
:Process results;

end

@enduml

PlantUML version 1.2020.03beta6(Unknown compile time)
(GPL source distribution)
Java Runtime: OpenJDK Runtime Environment
JVM: OpenJDK 64-Bit Server VM
Java Version: 11.0.5+10-b520.38
Operating System: Windows 10
Default Encoding: Cp1251
Language: en
Country: US
--></g></svg>