<?xml version="1.0" encoding="UTF-8" standalone="no"?><svg xmlns="http://www.w3.org/2000/svg" xmlns:xlink="http://www.w3.org/1999/xlink" contentScriptType="application/ecmascript" contentStyleType="text/css" height="700px" preserveAspectRatio="none" style="width:170px;height:700px;" version="1.1" viewBox="0 0 170 700" width="170px" zoomAndPan="magnify"><defs><filter height="300%" id="ffht39uv5ilnw" width="300%" x="-1" y="-1"><feGaussianBlur result="blurOut" stdDeviation="4.0"/><feColorMatrix in="blurOut" result="blurOut2" type="matrix" values="0 0 0 0 0 0 0 0 0 0 0 0 0 0 0 0 0 0 .4 0"/><feOffset dx="8.0" dy="8.0" in="blurOut2" result="blurOut3"/><feBlend in="SourceGraphic" in2="blurOut3" mode="normal"/></filter></defs><g><!--MD5=[cdabd4f4fe35e1fde6103a50af508278]
entity Ui--><rect fill="#FEFECE" filter="url(#ffht39uv5ilnw)" height="75.2188" style="stroke: #A80036; stroke-width: 3.0;" width="64" x="48" y="16"/><rect fill="#FEFECE" height="10" style="stroke: #A80036; stroke-width: 3.0;" width="20" x="38" y="26"/><rect fill="#FEFECE" height="10" style="stroke: #A80036; stroke-width: 3.0;" width="20" x="38" y="71.2188"/><text fill="#000000" font-family="sans-serif" font-size="28" lengthAdjust="spacingAndGlyphs" textLength="24" x="68" y="65.0664">Ui</text><!--MD5=[6e8f311b0aa23032184ffba0ef926f91]
entity App--><rect fill="#FEFECE" filter="url(#ffht39uv5ilnw)" height="75.2188" style="stroke: #A80036; stroke-width: 3.0;" width="90" x="35" y="212"/><rect fill="#FEFECE" height="10" style="stroke: #A80036; stroke-width: 3.0;" width="20" x="25" y="222"/><rect fill="#FEFECE" height="10" style="stroke: #A80036; stroke-width: 3.0;" width="20" x="25" y="267.2188"/><text fill="#000000" font-family="sans-serif" font-size="28" lengthAdjust="spacingAndGlyphs" textLength="50" x="55" y="261.0664">App</text><!--MD5=[2fb3fc8e03cad589fa238654c03a9f58]
entity Domain--><rect fill="#FEFECE" filter="url(#ffht39uv5ilnw)" height="75.2188" style="stroke: #A80036; stroke-width: 3.0;" width="136" x="12" y="408"/><rect fill="#FEFECE" height="10" style="stroke: #A80036; stroke-width: 3.0;" width="20" x="2" y="418"/><rect fill="#FEFECE" height="10" style="stroke: #A80036; stroke-width: 3.0;" width="20" x="2" y="463.2188"/><text fill="#000000" font-family="sans-serif" font-size="28" lengthAdjust="spacingAndGlyphs" textLength="96" x="32" y="457.0664">Domain</text><!--MD5=[4c3229e8240dfa29ecc305808e5086bb]
entity Utils--><rect fill="#FEFECE" filter="url(#ffht39uv5ilnw)" height="75.2188" style="stroke: #A80036; stroke-width: 3.0;" width="92" x="34" y="604"/><rect fill="#FEFECE" height="10" style="stroke: #A80036; stroke-width: 3.0;" width="20" x="24" y="614"/><rect fill="#FEFECE" height="10" style="stroke: #A80036; stroke-width: 3.0;" width="20" x="24" y="659.2188"/><text fill="#000000" font-family="sans-serif" font-size="28" lengthAdjust="spacingAndGlyphs" textLength="52" x="54" y="653.0664">Utils</text><!--MD5=[1655f851ad731c9ecfda795c3f846846]
link Ui to App--><path d="M80,92.114 C80,123.026 80,167.73 80,201.346 " fill="none" id="Ui-&gt;App" style="stroke: #A80036; stroke-width: 2.0;"/><polygon fill="#A80036" points="80,211.396,88,193.396,80,201.396,72,193.396,80,211.396" style="stroke: #A80036; stroke-width: 2.0;"/><!--MD5=[c6d28dd36f8209b7b27f00a464cf7233]
link App to Domain--><path d="M80,288.114 C80,319.026 80,363.73 80,397.346 " fill="none" id="App-&gt;Domain" style="stroke: #A80036; stroke-width: 2.0;"/><polygon fill="#A80036" points="80,407.396,88,389.396,80,397.396,72,389.396,80,407.396" style="stroke: #A80036; stroke-width: 2.0;"/><!--MD5=[0f9830d8ab9b156623965c9f6c0c667e]
link Domain to Utils--><path d="M80,484.1138 C80,515.0252 80,559.7294 80,593.3462 " fill="none" id="Domain-&gt;Utils" style="stroke: #A80036; stroke-width: 2.0;"/><polygon fill="#A80036" points="80,603.3954,88,585.3954,80,593.3954,72,585.3954,80,603.3954" style="stroke: #A80036; stroke-width: 2.0;"/><!--MD5=[79c9a7c5e07bac047159f5feaa182e64]
@startuml

[Ui] - -> [App]
[App] - -> [Domain]
[Domain] - -> [Utils]

@enduml

PlantUML version 1.2020.03beta6(Unknown compile time)
(GPL source distribution)
Java Runtime: OpenJDK Runtime Environment
JVM: OpenJDK 64-Bit Server VM
Java Version: 11.0.5+10-b520.38
Operating System: Windows 10
Default Encoding: Cp1251
Language: en
Country: US
--></g></svg>