<?xml version="1.0" encoding="UTF-8" standalone="no"?><svg xmlns="http://www.w3.org/2000/svg" xmlns:xlink="http://www.w3.org/1999/xlink" contentScriptType="application/ecmascript" contentStyleType="text/css" height="364px" preserveAspectRatio="none" style="width:354px;height:364px;" version="1.1" viewBox="0 0 354 364" width="354px" zoomAndPan="magnify"><defs><filter height="300%" id="f1f0cwzpha5hmj" width="300%" x="-1" y="-1"><feGaussianBlur result="blurOut" stdDeviation="4.0"/><feColorMatrix in="blurOut" result="blurOut2" type="matrix" values="0 0 0 0 0 0 0 0 0 0 0 0 0 0 0 0 0 0 .4 0"/><feOffset dx="8.0" dy="8.0" in="blurOut2" result="blurOut3"/><feBlend in="SourceGraphic" in2="blurOut3" mode="normal"/></filter></defs><g><!--MD5=[f36b681f1568c85a1e29d94d0cd105c7]
entity Reader--><rect fill="#FEFECE" filter="url(#f1f0cwzpha5hmj)" height="75.2188" style="stroke: #A80036; stroke-width: 3.0;" width="134" x="12" y="16"/><rect fill="#FEFECE" height="10" style="stroke: #A80036; stroke-width: 3.0;" width="20" x="2" y="26"/><rect fill="#FEFECE" height="10" style="stroke: #A80036; stroke-width: 3.0;" width="20" x="2" y="71.2188"/><text fill="#000000" font-family="sans-serif" font-size="28" lengthAdjust="spacingAndGlyphs" textLength="94" x="32" y="65.0664">Reader</text><!--MD5=[8d81e54158b732e3892f5ec8abe1acfa]
entity Writer--><rect fill="#FEFECE" filter="url(#f1f0cwzpha5hmj)" height="75.2188" style="stroke: #A80036; stroke-width: 3.0;" width="116" x="217" y="16"/><rect fill="#FEFECE" height="10" style="stroke: #A80036; stroke-width: 3.0;" width="20" x="207" y="26"/><rect fill="#FEFECE" height="10" style="stroke: #A80036; stroke-width: 3.0;" width="20" x="207" y="71.2188"/><text fill="#000000" font-family="sans-serif" font-size="28" lengthAdjust="spacingAndGlyphs" textLength="76" x="237" y="65.0664">Writer</text><!--MD5=[fa1e3283224feb76407c84b7e90ed808]
entity Database--><path d="M96,268 C96,248 177,248 177,248 C177,248 258,248 258,268 L258,321.2188 C258,341.2188 177,341.2188 177,341.2188 C177,341.2188 96,341.2188 96,321.2188 L96,268 " fill="#FEFECE" filter="url(#f1f0cwzpha5hmj)" style="stroke: #000000; stroke-width: 3.0;"/><path d="M96,268 C96,288 177,288 177,288 C177,288 258,288 258,268 " fill="none" style="stroke: #000000; stroke-width: 3.0;"/><text fill="#000000" font-family="sans-serif" font-size="28" lengthAdjust="spacingAndGlyphs" textLength="122" x="116" y="325.0664">Database</text><!--MD5=[24c7a5a34a0b6bbf5963e34b7043a169]
link Reader to Database--><path d="M94.0978,92.512 C110.2382,131.546 136.0046,193.858 154.5292,238.6572 " fill="none" id="Reader-&gt;Database" style="stroke: #A80036; stroke-width: 2.0;"/><polygon fill="#A80036" points="158.366,247.9364,158.8809,228.2454,154.5449,238.6953,144.095,234.3592,158.366,247.9364" style="stroke: #A80036; stroke-width: 2.0;"/><text fill="#000000" font-family="sans-serif" font-size="26" lengthAdjust="spacingAndGlyphs" textLength="50" x="133" y="180.9902">read</text><!--MD5=[89fcd1ae33609d8aa1d5ce02a4cf7a0b]
link Writer to Database--><path d="M259.902,92.512 C243.762,131.546 217.996,193.858 199.4708,238.6572 " fill="none" id="Writer-&gt;Database" style="stroke: #A80036; stroke-width: 2.0;"/><polygon fill="#A80036" points="195.634,247.9364,209.905,234.3592,199.4551,238.6953,195.1191,228.2454,195.634,247.9364" style="stroke: #A80036; stroke-width: 2.0;"/><text fill="#000000" font-family="sans-serif" font-size="26" lengthAdjust="spacingAndGlyphs" textLength="54" x="237" y="180.9902">write</text><!--MD5=[24e7b0c884c2138640107c9553dfebfb]
@startuml

[Reader]
[Writer]
database Database

Reader - -> Database: read
Writer - -> Database: write

@enduml

PlantUML version 1.2020.03beta6(Unknown compile time)
(GPL source distribution)
Java Runtime: OpenJDK Runtime Environment
JVM: OpenJDK 64-Bit Server VM
Java Version: 11.0.5+10-b520.38
Operating System: Windows 10
Default Encoding: Cp1251
Language: en
Country: US
--></g></svg>