<?xml version="1.0" encoding="UTF-8" standalone="no"?><svg xmlns="http://www.w3.org/2000/svg" xmlns:xlink="http://www.w3.org/1999/xlink" contentScriptType="application/ecmascript" contentStyleType="text/css" height="928px" preserveAspectRatio="none" style="width:682px;height:928px;" version="1.1" viewBox="0 0 682 928" width="682px" zoomAndPan="magnify"><defs><filter height="300%" id="frnmun9acqyo5" width="300%" x="-1" y="-1"><feGaussianBlur result="blurOut" stdDeviation="4.0"/><feColorMatrix in="blurOut" result="blurOut2" type="matrix" values="0 0 0 0 0 0 0 0 0 0 0 0 0 0 0 0 0 0 .4 0"/><feOffset dx="8.0" dy="8.0" in="blurOut2" result="blurOut3"/><feBlend in="SourceGraphic" in2="blurOut3" mode="normal"/></filter></defs><g><rect fill="#FFFFFF" filter="url(#frnmun9acqyo5)" height="121.4063" style="stroke: #A80036; stroke-width: 2.0;" width="20" x="269" y="291.1406"/><rect fill="#FFFFFF" filter="url(#frnmun9acqyo5)" height="76.7031" style="stroke: #FFFFFF; stroke-width: 2.0;" width="20" x="442" y="627.1719"/><line style="stroke: #A80036; stroke-width: 2.0;" x1="442" x2="442" y1="627.1719" y2="703.875"/><line style="stroke: #A80036; stroke-width: 2.0;" x1="462" x2="462" y1="627.1719" y2="703.875"/><line style="stroke: #A80036; stroke-width: 2.0;" x1="442" x2="462" y1="627.1719" y2="627.1719"/><rect fill="#FFFFFF" filter="url(#frnmun9acqyo5)" height="2" style="stroke: #FFFFFF; stroke-width: 2.0;" width="20" x="442" y="759.875"/><line style="stroke: #A80036; stroke-width: 2.0;" x1="442" x2="442" y1="759.875" y2="761.875"/><line style="stroke: #A80036; stroke-width: 2.0;" x1="462" x2="462" y1="759.875" y2="761.875"/><line style="stroke: #A80036; stroke-width: 2.0;" x1="70" x2="70" y1="133.2188" y2="703.875"/><line style="stroke: #A80036; stroke-width: 2.0; stroke-dasharray: 1.0,4.0;" x1="70" x2="70" y1="703.875" y2="759.875"/><line style="stroke: #A80036; stroke-width: 2.0;" x1="70" x2="70" y1="759.875" y2="779.875"/><line style="stroke: #A80036; stroke-width: 2.0;" x1="279" x2="279" y1="219.8281" y2="703.875"/><line style="stroke: #A80036; stroke-width: 2.0; stroke-dasharray: 1.0,4.0;" x1="279" x2="279" y1="703.875" y2="759.875"/><line style="stroke: #A80036; stroke-width: 2.0;" x1="279" x2="279" y1="759.875" y2="779.875"/><line style="stroke: #A80036; stroke-width: 2.0;" x1="451" x2="451" y1="555.8594" y2="703.875"/><line style="stroke: #A80036; stroke-width: 2.0; stroke-dasharray: 1.0,4.0;" x1="451" x2="451" y1="703.875" y2="759.875"/><line style="stroke: #A80036; stroke-width: 2.0;" x1="451" x2="451" y1="759.875" y2="779.875"/><line style="stroke: #A80036; stroke-width: 2.0;" x1="603" x2="603" y1="133.2188" y2="703.875"/><line style="stroke: #A80036; stroke-width: 2.0; stroke-dasharray: 1.0,4.0;" x1="603" x2="603" y1="703.875" y2="759.875"/><line style="stroke: #A80036; stroke-width: 2.0;" x1="603" x2="603" y1="759.875" y2="779.875"/><rect fill="#FEFECE" filter="url(#frnmun9acqyo5)" height="63.2188" style="stroke: #A80036; stroke-width: 3.0;" width="102" x="16" y="60"/><text fill="#000000" font-family="sans-serif" font-size="28" lengthAdjust="spacingAndGlyphs" textLength="74" x="30" y="103.0664">CI/CD</text><rect fill="#FEFECE" filter="url(#frnmun9acqyo5)" height="63.2188" style="stroke: #A80036; stroke-width: 3.0;" width="102" x="16" y="777.875"/><text fill="#000000" font-family="sans-serif" font-size="28" lengthAdjust="spacingAndGlyphs" textLength="74" x="30" y="820.9414">CI/CD</text><rect fill="#FEFECE" filter="url(#frnmun9acqyo5)" height="63.2188" style="stroke: #A80036; stroke-width: 3.0;" width="168" x="191" y="777.875"/><text fill="#000000" font-family="sans-serif" font-size="28" lengthAdjust="spacingAndGlyphs" textLength="140" x="205" y="820.9414">DbMigrator</text><rect fill="#FEFECE" filter="url(#frnmun9acqyo5)" height="63.2188" style="stroke: #A80036; stroke-width: 3.0;" width="122" x="387" y="777.875"/><text fill="#000000" font-family="sans-serif" font-size="28" lengthAdjust="spacingAndGlyphs" textLength="94" x="401" y="820.9414">Reader</text><text fill="#000000" font-family="sans-serif" font-size="28" lengthAdjust="spacingAndGlyphs" textLength="122" x="537" y="127.0664">Database</text><path d="M568,26 C568,6 604,6 604,6 C604,6 640,6 640,26 L640,78 C640,98 604,98 604,98 C604,98 568,98 568,78 L568,26 " fill="#FEFECE" filter="url(#frnmun9acqyo5)" style="stroke: #000000; stroke-width: 3.0;"/><path d="M568,26 C568,46 604,46 604,46 C604,46 640,46 640,26 " fill="none" style="stroke: #000000; stroke-width: 3.0;"/><text fill="#000000" font-family="sans-serif" font-size="28" lengthAdjust="spacingAndGlyphs" textLength="122" x="537" y="806.9414">Database</text><path d="M568,833.0938 C568,813.0938 604,813.0938 604,813.0938 C604,813.0938 640,813.0938 640,833.0938 L640,885.0938 C640,905.0938 604,905.0938 604,905.0938 C604,905.0938 568,905.0938 568,885.0938 L568,833.0938 " fill="#FEFECE" filter="url(#frnmun9acqyo5)" style="stroke: #000000; stroke-width: 3.0;"/><path d="M568,833.0938 C568,853.0938 604,853.0938 604,853.0938 C604,853.0938 640,853.0938 640,833.0938 " fill="none" style="stroke: #000000; stroke-width: 3.0;"/><rect fill="#FFFFFF" filter="url(#frnmun9acqyo5)" height="121.4063" style="stroke: #A80036; stroke-width: 2.0;" width="20" x="269" y="291.1406"/><rect fill="#FFFFFF" filter="url(#frnmun9acqyo5)" height="76.7031" style="stroke: #FFFFFF; stroke-width: 2.0;" width="20" x="442" y="627.1719"/><line style="stroke: #A80036; stroke-width: 2.0;" x1="442" x2="442" y1="627.1719" y2="703.875"/><line style="stroke: #A80036; stroke-width: 2.0;" x1="462" x2="462" y1="627.1719" y2="703.875"/><line style="stroke: #A80036; stroke-width: 2.0;" x1="442" x2="462" y1="627.1719" y2="627.1719"/><rect fill="#FFFFFF" filter="url(#frnmun9acqyo5)" height="2" style="stroke: #FFFFFF; stroke-width: 2.0;" width="20" x="442" y="759.875"/><line style="stroke: #A80036; stroke-width: 2.0;" x1="442" x2="442" y1="759.875" y2="761.875"/><line style="stroke: #A80036; stroke-width: 2.0;" x1="462" x2="462" y1="759.875" y2="761.875"/><polygon fill="#A80036" points="167,189.9219,187,197.9219,167,205.9219,175,197.9219" style="stroke: #A80036; stroke-width: 2.0;"/><line style="stroke: #A80036; stroke-width: 2.0;" x1="71" x2="179" y1="197.9219" y2="197.9219"/><text fill="#000000" font-family="sans-serif" font-size="26" lengthAdjust="spacingAndGlyphs" textLength="72" x="85" y="188.209">create</text><rect fill="#FEFECE" filter="url(#frnmun9acqyo5)" height="63.2188" style="stroke: #A80036; stroke-width: 3.0;" width="168" x="191" y="153.2188"/><text fill="#000000" font-family="sans-serif" font-size="28" lengthAdjust="spacingAndGlyphs" textLength="140" x="205" y="196.2852">DbMigrator</text><polygon fill="#A80036" points="245,283.1406,265,291.1406,245,299.1406,253,291.1406" style="stroke: #A80036; stroke-width: 2.0;"/><line style="stroke: #A80036; stroke-width: 2.0;" x1="71" x2="257" y1="291.1406" y2="291.1406"/><text fill="#000000" font-family="sans-serif" font-size="26" lengthAdjust="spacingAndGlyphs" textLength="36" x="85" y="281.4277">run</text><polygon fill="#A80036" points="580,343.8438,600,351.8438,580,359.8438,588,351.8438" style="stroke: #A80036; stroke-width: 2.0;"/><line style="stroke: #A80036; stroke-width: 2.0;" x1="289" x2="592" y1="351.8438" y2="351.8438"/><text fill="#000000" font-family="sans-serif" font-size="26" lengthAdjust="spacingAndGlyphs" textLength="178" x="303" y="342.1309">update schema</text><polygon fill="#A80036" points="93,404.5469,73,412.5469,93,420.5469,85,412.5469" style="stroke: #A80036; stroke-width: 2.0;"/><line style="stroke: #A80036; stroke-width: 2.0; stroke-dasharray: 2.0,2.0;" x1="81" x2="277" y1="412.5469" y2="412.5469"/><text fill="#000000" font-family="sans-serif" font-size="26" lengthAdjust="spacingAndGlyphs" textLength="98" x="105" y="402.834">success</text><polygon fill="#A80036" points="255,465.25,275,473.25,255,481.25,263,473.25" style="stroke: #A80036; stroke-width: 2.0;"/><line style="stroke: #A80036; stroke-width: 2.0;" x1="71" x2="267" y1="473.25" y2="473.25"/><text fill="#000000" font-family="sans-serif" font-size="26" lengthAdjust="spacingAndGlyphs" textLength="32" x="85" y="463.5371">kill</text><line style="stroke: #A80036; stroke-width: 4.0;" x1="261" x2="297" y1="455.25" y2="491.25"/><line style="stroke: #A80036; stroke-width: 4.0;" x1="261" x2="297" y1="491.25" y2="455.25"/><polygon fill="#A80036" points="363,525.9531,383,533.9531,363,541.9531,371,533.9531" style="stroke: #A80036; stroke-width: 2.0;"/><line style="stroke: #A80036; stroke-width: 2.0;" x1="71" x2="375" y1="533.9531" y2="533.9531"/><text fill="#000000" font-family="sans-serif" font-size="26" lengthAdjust="spacingAndGlyphs" textLength="72" x="85" y="524.2402">create</text><rect fill="#FEFECE" filter="url(#frnmun9acqyo5)" height="63.2188" style="stroke: #A80036; stroke-width: 3.0;" width="122" x="387" y="489.25"/><text fill="#000000" font-family="sans-serif" font-size="28" lengthAdjust="spacingAndGlyphs" textLength="94" x="401" y="532.3164">Reader</text><polygon fill="#A80036" points="418,619.1719,438,627.1719,418,635.1719,426,627.1719" style="stroke: #A80036; stroke-width: 2.0;"/><line style="stroke: #A80036; stroke-width: 2.0;" x1="71" x2="430" y1="627.1719" y2="627.1719"/><text fill="#000000" font-family="sans-serif" font-size="26" lengthAdjust="spacingAndGlyphs" textLength="36" x="85" y="617.459">run</text><polygon fill="#A80036" points="580,679.875,600,687.875,580,695.875,588,687.875" style="stroke: #A80036; stroke-width: 2.0;"/><line style="stroke: #A80036; stroke-width: 2.0;" x1="462" x2="592" y1="687.875" y2="687.875"/><text fill="#000000" font-family="sans-serif" font-size="26" lengthAdjust="spacingAndGlyphs" textLength="62" x="476" y="678.1621">using</text><!--MD5=[13caea9e946f2ebee9001ffcf017d43c]
@startuml

participant "CI/CD" as ci
participant DbMigrator as migrator
participant Reader as reader
database Database

ci -> migrator **: create
    ci -> migrator ++: run
        migrator -> Database: update schema
    return success
ci -> migrator !!: kill

ci -> reader **: create
    ci -> reader ++: run
        reader -> Database: using
...

@enduml

PlantUML version 1.2020.03beta6(Unknown compile time)
(GPL source distribution)
Java Runtime: OpenJDK Runtime Environment
JVM: OpenJDK 64-Bit Server VM
Java Version: 11.0.5+10-b520.38
Operating System: Windows 10
Default Encoding: Cp1251
Language: en
Country: US
--></g></svg>